<?xml version="1.0" encoding="UTF-8" standalone="no"?>
<!-- Created with Inkscape (http://www.inkscape.org/) -->

<svg
   xmlns:dc="http://purl.org/dc/elements/1.1/"
   xmlns:cc="http://creativecommons.org/ns#"
   xmlns:rdf="http://www.w3.org/1999/02/22-rdf-syntax-ns#"
   xmlns:svg="http://www.w3.org/2000/svg"
   xmlns="http://www.w3.org/2000/svg"
   xmlns:sodipodi="http://sodipodi.sourceforge.net/DTD/sodipodi-0.dtd"
   xmlns:inkscape="http://www.inkscape.org/namespaces/inkscape"
   width="400mm"
   height="352mm"
   viewBox="0 0 400 352"
   version="1.1"
   id="svg4519"
   inkscape:version="0.92.1 r15371"
   sodipodi:docname="logoIgnacio1.svg">
  <defs
     id="defs4513" />
  <sodipodi:namedview
     id="base"
     pagecolor="#ffffff"
     bordercolor="#666666"
     borderopacity="1.0"
     inkscape:pageopacity="0.0"
     inkscape:pageshadow="2"
     inkscape:zoom="0.64"
     inkscape:cx="823.46114"
     inkscape:cy="879.2358"
     inkscape:document-units="mm"
     inkscape:current-layer="layer1"
     showgrid="false"
     inkscape:window-width="1440"
     inkscape:window-height="837"
     inkscape:window-x="-8"
     inkscape:window-y="-8"
     inkscape:window-maximized="1" />
  <metadata
     id="metadata4516">
    <rdf:RDF>
      <cc:Work
         rdf:about="">
        <dc:format>image/svg+xml</dc:format>
        <dc:type
           rdf:resource="http://purl.org/dc/dcmitype/StillImage" />
        <dc:title></dc:title>
      </cc:Work>
    </rdf:RDF>
  </metadata>
  <g
     inkscape:label="Capa 1"
     inkscape:groupmode="layer"
     id="layer1"
     transform="translate(0,55)">
    <g
       id="g5127"
       transform="matrix(1.0526685,0,0,1.0526685,68.198948,-94.454398)">
      <path
         style="fill:#fdfdfd;stroke-width:0.26458335"
         d="M 27.449499,188.00315 V 117.35939 H 133.28283 239.11617 v 70.64376 70.64375 H 133.28283 27.449499 Z"
         id="path5139"
         inkscape:connector-curvature="0" />
      <path
         style="fill:#2e8ee1;stroke-width:0.26458335"
         d="m 89.021108,212.44489 c -0.103552,-0.10355 -0.188275,-3.62668 -0.188275,-7.82918 v -7.64091 l 1.76548,0.0782 1.76548,0.0782 3.486579,5.3623 c 1.917621,2.94927 3.545782,5.42151 3.61814,5.49387 0.07236,0.0724 1.768478,-2.37045 3.769148,-5.42845 l 3.6376,-5.56001 h 1.69841 1.69841 l -0.0701,7.73906 -0.0701,7.73907 h -1.45521 -1.4552 l -0.1323,-5.12444 -0.13229,-5.12444 -3.43958,5.12444 c -2.55163,3.80152 -3.576195,5.12444 -3.968752,5.12444 -0.393094,0 -1.413639,-1.32292 -3.96875,-5.14463 l -3.439583,-5.14462 -0.132292,5.14462 -0.132291,5.14463 -1.33308,0.078 c -0.733194,0.0429 -1.417804,-0.007 -1.521354,-0.11025 z m 25.632372,-0.0128 c -1.95679,-0.33192 -2.70799,-1.71501 -2.4154,-4.4472 0.13888,-1.29685 0.32595,-1.8056 0.84258,-2.29153 0.62934,-0.59194 0.87824,-0.62904 4.75993,-0.70959 l 4.09588,-0.085 -0.0815,-0.84104 -0.0815,-0.84104 -4.29948,-0.0727 -4.29948,-0.0727 v -1.18407 -1.18407 l 4.82865,0.001 c 4.33345,8e-4 4.9161,0.0543 5.68144,0.52096 0.46903,0.28599 0.91963,0.79156 1.00133,1.12349 0.0817,0.33194 0.11465,2.74665 0.0732,5.36602 l -0.0753,4.7625 -0.89651,0.0856 c -1.23108,0.11753 -2.1462,-0.14936 -2.1462,-0.62601 0,-0.34305 -0.0927,-0.33719 -0.67214,0.0425 -0.68717,0.45024 -4.65397,0.73467 -6.31555,0.45282 z m 7.06987,-3.59301 c 0.0835,-0.61846 0.0594,-1.21786 -0.0536,-1.33199 -0.11301,-0.11413 -1.56466,-0.17366 -3.22588,-0.13229 l -3.0204,0.0752 -0.0806,1.25677 -0.0807,1.25677 h 3.15466 3.15466 z m 9.71159,3.50401 c -0.50703,-0.12176 -1.19164,-0.535 -1.52136,-0.91833 -0.5631,-0.65464 -0.5995,-0.92896 -0.5995,-4.51866 v -3.8217 h -1.71979 -1.71979 v -1.19063 -1.19062 h 1.71979 1.71979 v -1.7198 -1.71979 h 1.5875 1.5875 v 1.71979 1.7198 h 2.38125 2.38125 v 1.19062 1.19063 h -2.38125 -2.38125 v 3.43958 3.43958 h 2.39575 2.39575 l -0.0806,1.25677 -0.0806,1.25678 -2.38125,0.0437 c -1.30969,0.024 -2.79608,-0.0559 -3.3031,-0.1777 z m 8.0571,-0.0573 c -0.0742,-0.19332 -0.10262,-2.84873 -0.0632,-5.90091 l 0.0717,-5.54941 h 1.45521 1.45521 v 5.82083 5.82084 l -1.39202,0.0801 c -0.97308,0.056 -1.43262,-0.0257 -1.5269,-0.27142 z m 7.02415,0.0704 c -0.50703,-0.12896 -1.19164,-0.54809 -1.52136,-0.93142 -0.50785,-0.59041 -0.5995,-1.00071 -0.5995,-2.68397 0,-1.09286 0.12865,-2.22739 0.28588,-2.52119 0.52884,-0.98814 1.82974,-1.28312 5.65875,-1.28312 h 3.58037 v -0.92604 -0.92604 h -4.38083 -4.38084 l 0.0814,-1.12448 0.0814,-1.12448 h 5.11535 5.11536 l 0.77742,0.87056 0.77742,0.87056 -0.0719,4.95027 -0.0719,4.95028 -1.41002,0.0807 c -1.22628,0.0702 -1.42815,0.0114 -1.54906,-0.45097 -0.12952,-0.49528 -0.18178,-0.50366 -0.7637,-0.12238 -0.73915,0.48432 -5.2918,0.73599 -6.72407,0.37172 z m 7.40414,-3.71553 v -1.32292 h -3.175 -3.175 v 1.32292 1.32291 h 3.175 3.175 z m 4.93889,3.79236 c -0.097,-0.097 -0.17639,-0.69233 -0.17639,-1.32292 v -1.14653 h 4.49792 4.49792 v -1.02768 -1.02769 l -3.50573,-0.10935 c -4.88025,-0.15223 -5.46793,-0.52478 -5.48169,-3.47507 -0.0157,-3.37486 0.44076,-3.62062 6.72532,-3.62062 h 4.64335 v 1.1839 1.18391 l -4.16719,0.0729 -4.16719,0.0729 -0.0809,0.97242 -0.0809,0.97243 3.83074,0.0859 c 3.63149,0.0814 3.86621,0.11927 4.51271,0.72734 0.62753,0.59023 0.68196,0.81826 0.68196,2.8569 0,3.52542 -0.51194,3.77771 -7.66574,3.77771 -2.13825,0 -3.9671,-0.0794 -4.06412,-0.17639 z m -19.75555,-14.77257 v -1.19063 h 1.85208 1.85208 v 1.19063 1.19062 h -1.85208 -1.85208 z m -41.01042,-1.71979 v -1.32292 h 3.43958 3.43959 v -1.45521 -1.45521 h -3.32765 c -3.325142,0 -3.328222,-5.3e-4 -4.101038,-0.7734 l -0.773399,-0.77339 v -4.79488 c 0,-4.73808 0.0077,-4.80257 0.649433,-5.44431 0.606343,-0.60635 0.832179,-0.64944 3.403904,-0.64944 2.38599,0 2.84773,0.0734 3.45161,0.54837 l 0.69714,0.54837 v -0.54837 c 0,-0.47353 0.16249,-0.54837 1.19062,-0.54837 h 1.19063 v 7.81371 c 0,8.30109 -0.12605,9.27283 -1.28313,9.89208 -0.31001,0.16592 -2.09584,0.28588 -4.25573,0.28588 h -3.72156 z m 6.87917,-10.45105 v -3.57187 H 102.062 99.151583 v 3.57187 3.57188 h 2.910417 2.91042 z m -35.806947,6.83507 c -0.09701,-0.097 -0.174292,-2.62709 -0.171725,-5.62239 l 0.0047,-5.44601 3.809969,-3.63802 3.809965,-3.63802 h 5.313495 5.313492 v 9.26041 9.26042 H 78.29359 c -4.923457,0 -9.031113,-0.0794 -9.128125,-0.17639 z m 21.396815,-5.446 c -0.09946,-2.9468 -0.142328,-6.78657 -0.09525,-8.53282 l 0.08559,-3.175 1.389063,-0.08 1.389062,-0.08 -7.94e-4,4.44559 c -5.29e-4,2.44508 -0.07866,6.32084 -0.173715,8.61279 l -0.172833,4.16719 h -1.120095 -1.120095 l -0.180843,-5.35781 z m 20.407352,5.18142 c -0.097,-0.097 -0.17639,-3.01404 -0.17639,-6.48229 v -6.30591 h 1.16232 c 0.8096,0 1.21044,0.12542 1.32091,0.41329 0.14377,0.37465 0.21374,0.37465 0.74863,0 0.44239,-0.30986 1.27355,-0.41329 3.32133,-0.41329 2.5471,0 2.77507,0.0438 3.38071,0.64944 l 0.64943,0.64943 v 5.84807 5.84808 l -1.12448,-0.0814 -1.12447,-0.0814 -0.0719,-5.09323 -0.0719,-5.09323 h -2.90471 -2.9047 v 5.15937 5.15938 h -1.01423 c -0.55784,0 -1.09362,-0.0794 -1.19063,-0.17639 z m 15.01306,-0.43868 c -0.75897,-0.65284 -0.76966,-0.70063 -0.76966,-3.44175 0,-2.57774 0.0466,-2.82933 0.64143,-3.46249 0.62225,-0.66235 0.73897,-0.68278 3.90261,-0.68278 h 3.26117 v -1.05833 -1.05833 h -3.57187 -3.57188 v -1.32292 -1.32292 h 4.11307 c 4.01418,0 4.12868,0.0156 4.7625,0.64944 l 0.64943,0.64943 v 5.83286 5.83286 h -1.19062 c -1.04278,0 -1.19063,-0.0708 -1.19063,-0.57018 0,-0.56287 -0.007,-0.56371 -0.55631,-0.0661 -0.44893,0.40674 -1.05366,0.52133 -3.13295,0.59365 -2.43201,0.0846 -2.61984,0.0525 -3.34629,-0.5724 z m 7.03555,-3.48597 v -1.45521 h -2.77812 -2.77813 v 1.45521 1.45521 h 2.77813 2.77812 z m 6.59423,3.32764 -0.7734,-0.7734 v -5.05946 c 0,-5.019 0.005,-5.06466 0.64944,-5.70889 0.62962,-0.62963 0.7661,-0.64944 4.47439,-0.64944 h 3.82497 l 0.68498,0.81406 c 0.5682,0.67526 0.68497,1.08123 0.68497,2.38125 v 1.56719 h -1.19062 -1.19063 v -1.05833 -1.05833 h -2.77812 -2.77813 v 3.83646 3.83646 h 2.77813 2.77812 v -1.05834 -1.05833 h 1.22145 1.22145 l -0.11178,1.75544 c -0.0964,1.51453 -0.21162,1.84132 -0.83933,2.38125 -0.68742,0.5913 -0.92484,0.62581 -4.30502,0.62581 h -3.57747 z m 12.98494,-5.70889 v -6.4823 h 1.19062 1.19063 v 6.4823 6.48229 h -1.19063 -1.19062 z m 6.85881,5.70889 -0.7734,-0.7734 v -5.05946 c 0,-5.019 0.005,-5.06466 0.64944,-5.70889 0.62926,-0.62927 0.76749,-0.64944 4.45179,-0.64944 3.74419,0 3.81218,0.0104 4.4438,0.68205 0.62094,0.66025 0.64411,0.83047 0.72505,5.32699 0.12411,6.89464 0.0787,6.95555 -5.18992,6.95555 h -3.53336 z m 7.1641,-5.70889 v -3.83646 h -2.77812 -2.77813 v 3.83646 3.83646 h 2.77813 2.77812 z m -14.02291,-9.92188 v -1.32292 h 1.19062 1.19063 v 1.32292 1.32292 h -1.19063 -1.19062 z"
         id="path5137"
         inkscape:connector-curvature="0" />
      <path
         style="fill:#2a7bc1;stroke-width:0.26458335"
         d="m 89.163562,212.44035 c -0.253756,-0.10714 -0.330729,-1.92309 -0.330729,-7.80259 v -7.66296 l 1.75822,0.0782 1.758217,0.0782 3.477837,5.3463 c 1.912811,2.94046 3.544239,5.4127 3.625398,5.49386 0.08116,0.0812 1.784485,-2.35444 3.785155,-5.41244 l 3.6376,-5.56001 h 1.69841 1.69841 l -0.0701,7.73906 -0.0701,7.73907 -0.8965,0.0856 c -0.49308,0.0471 -1.17513,0.0157 -1.51566,-0.0698 -0.61886,-0.15533 -0.61918,-0.1577 -0.69099,-5.20963 l -0.0718,-5.05423 -3.43958,5.12399 c -2.55155,3.80107 -3.576205,5.12399 -3.968752,5.12399 -0.393483,0 -1.41111,-1.32292 -3.96875,-5.15938 l -3.439583,-5.15938 -0.132292,5.15938 -0.132291,5.15938 -1.190625,0.0514 c -0.654844,0.0283 -1.339453,-0.0114 -1.521355,-0.0882 z m 25.422348,-0.004 c -1.88263,-0.27267 -2.71954,-2.10494 -2.27317,-4.97668 0.16918,-1.08841 0.35804,-1.41737 1.10127,-1.91823 0.83131,-0.56023 1.1767,-0.60455 4.71117,-0.60455 h 3.8141 l -0.0829,-0.8599 -0.0829,-0.85989 -4.29948,-0.0727 -4.29948,-0.0727 v -1.18407 -1.18407 l 4.82865,10e-4 c 4.33345,8e-4 4.9161,0.0543 5.68144,0.52096 0.46903,0.28599 0.91963,0.79156 1.00133,1.12349 0.0817,0.33194 0.11465,2.74665 0.0732,5.36602 l -0.0753,4.7625 -1.24576,0.0802 c -1.00394,0.0646 -1.30855,-0.0203 -1.56922,-0.43776 -0.29898,-0.47874 -0.37073,-0.48698 -0.94774,-0.10891 -0.63527,0.41624 -4.57272,0.68057 -6.33525,0.42529 z m 7.13744,-3.59686 c 0.0835,-0.61846 0.0594,-1.21786 -0.0536,-1.33199 -0.11301,-0.11413 -1.56466,-0.17366 -3.22588,-0.13229 l -3.0204,0.0752 -0.0806,1.25677 -0.0807,1.25677 h 3.15466 3.15466 z m 9.85471,3.50865 c -0.62722,-0.12073 -1.28672,-0.4838 -1.65365,-0.91037 -0.57646,-0.67019 -0.61033,-0.9216 -0.61033,-4.53126 v -3.8217 h -1.71979 -1.71979 v -1.19063 -1.19062 h 1.71979 1.71979 v -1.7198 -1.71979 h 1.5875 1.5875 v 1.71979 1.7198 h 2.38125 2.38125 v 1.19062 1.19063 h -2.38125 -2.38125 v 3.43958 3.43958 h 2.38125 2.38125 v 1.16232 c 0,0.81581 -0.12476,1.2102 -0.41851,1.32292 -0.56023,0.21498 -3.95192,0.14975 -5.25501,-0.10107 z m 7.90863,-0.0759 c -0.0713,-0.18566 -0.0973,-2.8348 -0.0578,-5.88698 l 0.0717,-5.54941 h 1.45521 1.45521 l 0.0716,5.66959 c 0.055,4.35908 -0.006,5.7189 -0.26459,5.88293 -0.54578,0.3464 -2.58705,0.25961 -2.73123,-0.11613 z m 7.0295,0.0844 c -0.50703,-0.12896 -1.19164,-0.54809 -1.52136,-0.93142 -0.50785,-0.59041 -0.5995,-1.00071 -0.5995,-2.68397 0,-1.09286 0.12865,-2.22739 0.28588,-2.52119 0.52884,-0.98814 1.82974,-1.28312 5.65875,-1.28312 h 3.58037 v -0.92604 -0.92604 h -4.38083 -4.38084 l 0.0814,-1.12448 0.0814,-1.12448 h 5.11535 5.11536 l 0.77162,0.86407 0.77162,0.86407 v 4.86231 c 0,5.41493 0.0848,5.18351 -1.89849,5.18351 -0.8307,0 -1.09086,-0.11242 -1.19669,-0.51712 -0.1256,-0.4803 -0.17969,-0.48797 -0.75989,-0.10782 -0.73915,0.48432 -5.2918,0.73599 -6.72407,0.37172 z m 7.40414,-3.71553 v -1.32292 h -3.175 -3.175 v 1.32292 1.32291 h 3.175 3.175 z m 4.96094,3.81579 c -0.10914,-0.1099 -0.19844,-0.71576 -0.19844,-1.34635 v -1.14653 h 4.49792 4.49792 v -1.05833 -1.05833 l -2.84427,-0.006 c -3.34833,-0.007 -4.64811,-0.261 -5.51568,-1.07604 -0.55215,-0.51871 -0.63589,-0.83747 -0.63589,-2.42073 0,-3.40042 0.44434,-3.64065 6.73374,-3.64065 h 4.64335 v 1.1839 1.18391 l -4.16719,0.0729 -4.16719,0.0729 -0.0809,0.97242 -0.0809,0.97243 3.83074,0.0859 c 3.63149,0.0814 3.86621,0.11927 4.51271,0.72734 0.61897,0.58218 0.68196,0.8307 0.68196,2.69034 0,2.48791 -0.10169,2.78276 -1.15654,3.35311 -0.66753,0.36093 -1.75003,0.46604 -5.59033,0.54281 -2.61938,0.0524 -4.8518,0.005 -4.96094,-0.10461 z m -19.7776,-14.796 v -1.19063 h 1.85208 1.85208 v 1.19063 1.19062 h -1.85208 -1.85208 z m -41.01042,-1.71979 v -1.32292 h 3.43958 3.43959 v -1.45521 -1.45521 h -3.32765 c -3.325142,0 -3.328222,-5.3e-4 -4.101038,-0.7734 l -0.773399,-0.77339 v -4.79488 c 0,-4.73808 0.0077,-4.80257 0.649433,-5.44431 0.606343,-0.60635 0.832179,-0.64944 3.403904,-0.64944 2.38599,0 2.84773,0.0734 3.45161,0.54837 l 0.69714,0.54837 v -0.54837 c 0,-0.47353 0.16249,-0.54837 1.19062,-0.54837 h 1.19063 v 7.81371 c 0,8.55442 -0.12565,9.40788 -1.45964,9.91506 -0.38031,0.1446 -2.29107,0.2629 -4.24613,0.2629 h -3.55465 z m 6.87917,-10.45105 v -3.57187 H 102.062 99.151583 v 3.57187 3.57188 h 2.910417 2.91042 z m -14.287503,-1.85208 v -8.59896 h 1.322916 1.322917 l -7.94e-4,4.43177 c -5.29e-4,2.43748 -0.07866,6.30701 -0.173715,8.59896 l -0.172833,4.16719 h -1.149202 -1.149202 v -8.59896 z m 20.284723,8.42257 c -0.097,-0.097 -0.17639,-3.01404 -0.17639,-6.48229 v -6.30591 h 1.19063 c 0.88194,0 1.19062,0.1029 1.19062,0.39688 0,0.49381 0.24951,0.4915 0.91047,-0.008 0.37479,-0.28348 1.25395,-0.38847 3.25317,-0.38847 2.55591,0 2.78312,0.0435 3.38901,0.64944 l 0.64943,0.64943 v 5.84807 5.84808 l -1.12448,-0.0814 -1.12447,-0.0814 -0.0719,-5.09323 -0.0719,-5.09323 h -2.90471 -2.9047 v 5.15937 5.15938 h -1.01423 c -0.55784,0 -1.09362,-0.0794 -1.19063,-0.17639 z m 15.01306,-0.43868 c -0.75897,-0.65284 -0.76966,-0.70063 -0.76966,-3.44175 0,-2.57774 0.0466,-2.82933 0.64143,-3.46249 0.62225,-0.66235 0.73897,-0.68278 3.90261,-0.68278 h 3.26117 v -1.05833 -1.05833 h -3.57187 -3.57188 v -1.32292 -1.32292 h 4.11307 c 4.01418,0 4.12868,0.0156 4.7625,0.64944 l 0.64943,0.64943 v 5.83286 5.83286 h -1.19062 c -1.04278,0 -1.19063,-0.0708 -1.19063,-0.57018 0,-0.56287 -0.007,-0.56371 -0.55631,-0.0661 -0.44893,0.40674 -1.05366,0.52133 -3.13295,0.59365 -2.43201,0.0846 -2.61984,0.0525 -3.34629,-0.5724 z m 7.03555,-3.48597 v -1.45521 h -2.77812 -2.77813 v 1.45521 1.45521 h 2.77813 2.77812 z m 6.59423,3.32764 -0.7734,-0.7734 v -5.05946 c 0,-5.019 0.005,-5.06466 0.64944,-5.70889 0.62962,-0.62963 0.7661,-0.64944 4.47439,-0.64944 h 3.82497 l 0.68498,0.81406 c 0.5682,0.67526 0.68497,1.08123 0.68497,2.38125 v 1.56719 h -1.19062 -1.19063 v -1.05833 -1.05833 h -2.77812 -2.77813 v 3.83646 3.83646 h 2.77813 2.77812 v -1.05834 -1.05833 h 1.22145 1.22145 l -0.11178,1.75544 c -0.0964,1.51453 -0.21162,1.84132 -0.83933,2.38125 -0.68742,0.5913 -0.92484,0.62581 -4.30502,0.62581 h -3.57747 z m 12.98494,-5.70889 v -6.4823 h 1.19062 1.19063 v 6.4823 6.48229 h -1.19063 -1.19062 z m 6.85881,5.70889 -0.7734,-0.7734 v -5.05946 c 0,-5.019 0.005,-5.06466 0.64944,-5.70889 0.62926,-0.62927 0.76749,-0.64944 4.45179,-0.64944 3.74419,0 3.81218,0.0104 4.4438,0.68205 0.62094,0.66025 0.64411,0.83047 0.72505,5.32699 0.12411,6.89464 0.0787,6.95555 -5.18992,6.95555 h -3.53336 z m 7.1641,-5.70889 v -3.83646 h -2.77812 -2.77813 v 3.83646 3.83646 h 2.77813 2.77812 z m -95.845309,-4.29657 c -0.836745,-0.0525 -1.509864,-0.17882 -1.49582,-0.2807 0.01405,-0.10188 1.680919,-1.71557 3.704167,-3.58598 l 3.678632,-3.40075 -0.0029,2.73929 c -0.0016,1.50661 -0.07671,3.18577 -0.166909,3.73148 l -0.163997,0.99218 -2.015903,-0.05 c -1.108747,-0.0275 -2.700512,-0.093 -3.537257,-0.1455 z m 81.822399,-5.62531 v -1.32292 h 1.19062 1.19063 v 1.32292 1.32292 h -1.19063 -1.19062 z"
         id="path5135"
         inkscape:connector-curvature="0" />
      <path
         style="fill:#176eba;stroke-width:0.26458335"
         d="m 88.832833,204.65981 v -7.68501 l 1.748137,0.0782 1.748136,0.0782 3.479742,5.33812 c 1.913858,2.93597 3.552251,5.41063 3.640873,5.49925 0.08862,0.0886 1.797239,-2.34329 3.796929,-5.40426 l 3.6358,-5.5654 h 1.69082 1.69081 v 7.67292 7.67291 h -1.58178 -1.58179 l -0.0719,-5.06378 -0.0719,-5.06379 -3.3742,5.06379 c -2.78145,4.17423 -3.48309,5.06378 -3.994066,5.06378 -0.496874,0 -1.024011,-0.60681 -2.656676,-3.05823 -1.120243,-1.68202 -1.823225,-2.94789 -1.562182,-2.81304 0.5944,0.30706 3.039026,0.58309 2.933674,0.33126 -0.04279,-0.10229 -1.447017,-2.2891 -3.120507,-4.85956 l -3.042708,-4.67359 -1.521354,-0.004 -1.521354,-0.004 v 4.24164 c 0,3.16283 0.08412,4.26743 0.330729,4.34307 0.181901,0.0558 0.777213,0.16362 1.322916,0.23964 l 0.992188,0.13822 v -2.38023 c 0,-1.30913 0.0893,-2.32522 0.198438,-2.25797 0.10914,0.0673 0.16389,2.51505 0.121668,5.43958 l -0.07677,5.3173 H 90.40971 88.832833 Z m 21.166667,-2.10458 v -5.29167 l -1.52135,0.009 -1.52136,0.009 -3.10437,4.7863 c -1.7074,2.63246 -3.03983,4.89073 -2.96095,5.01836 0.0789,0.12764 0.65592,0.23207 1.28229,0.23207 h 1.13886 l 1.95438,-2.95724 1.95438,-2.95723 0.0753,3.01344 c 0.0501,2.00301 0.18316,3.08196 0.39688,3.21777 0.17684,0.11238 0.76802,0.20615 1.31372,0.20837 l 0.99219,0.004 z m 3.57188,9.48406 c -0.92945,-0.50836 -1.19063,-1.08236 -1.19063,-2.61663 v -1.49808 l 1.2975,0.12467 c 1.10515,0.10619 1.31634,0.0514 1.42452,-0.36957 0.0699,-0.27183 0.14082,0.13084 0.15771,0.89482 l 0.0307,1.38906 h 3.30729 3.30729 v -0.79375 c 0,-0.77611 0.0294,-0.79375 1.32292,-0.79375 h 1.32291 v -2.89566 c 0,-2.67867 -0.0478,-2.95129 -0.63799,-3.63802 l -0.63799,-0.74236 -4.90225,-0.0823 -4.90226,-0.0823 -0.10207,1.14068 -0.10207,1.14067 -0.0462,-1.25677 -0.0462,-1.25677 h 4.63871 c 4.93772,0 6.1548,0.23249 6.71708,1.28312 0.17533,0.32762 0.28588,2.43358 0.28588,5.44636 v 4.91218 h -1.45521 c -1.11713,0 -1.45521,-0.0922 -1.45521,-0.39687 0,-0.49381 -0.24951,-0.4915 -0.91047,0.008 -0.62799,0.47499 -6.58544,0.54155 -7.4239,0.0829 z m 16.61735,-0.33239 -0.74235,-0.63792 -0.0186,-3.92615 c -0.0103,-2.16848 0.0235,-2.77127 0.0754,-1.34645 l 0.094,2.57968 h 1.30441 1.3044 l 0.0857,-2.71198 c 0.083,-2.62598 0.0875,-2.60081 0.14155,0.79375 l 0.0558,3.50573 h 2.38125 2.38125 v 1.19063 1.19062 h -3.16024 c -2.95817,0 -3.20772,-0.0408 -3.90261,-0.63791 z m 9.24051,-5.11677 0.0713,-5.75469 h 1.45521 1.45521 l 0.0713,5.75469 0.0713,5.75468 h -1.59782 -1.59782 z m 2.79096,-1.98438 -0.0738,-3.50573 h -1.19063 -1.19062 l -0.0738,3.50573 -0.0738,3.50573 h 1.33827 1.33828 z m 2.94853,6.96567 c -0.71934,-0.71934 -0.7734,-0.91417 -0.7734,-2.78744 0,-3.4532 0.6125,-3.8475 5.97664,-3.8475 h 3.51642 l 0.10379,-0.99219 0.10378,-0.99219 0.0445,1.10586 0.0445,1.10585 -4.12458,0.0848 -4.12458,0.0848 -0.63792,0.74236 c -0.35086,0.4083 -0.63792,0.97385 -0.63792,1.25677 0,0.43975 0.18882,0.51442 1.30087,0.51442 0.79313,0 1.35295,-0.12909 1.43432,-0.33073 0.0734,-0.1819 0.14285,0.29435 0.15434,1.05833 l 0.0209,1.38906 h 3.175 3.175 v -1.32291 c 0,-1.21616 0.0507,-1.32292 0.62839,-1.32292 0.34561,0 1.00046,-0.0744 1.45521,-0.16536 l 0.82682,-0.16537 v -1.77953 c 0,-3.95503 -0.4433,-4.23974 -6.60144,-4.23974 h -4.51106 v 1.05833 c 0,0.58209 -0.12591,1.05834 -0.2798,1.05834 -0.16554,0 -0.24657,-0.45917 -0.19843,-1.12448 l 0.0814,-1.12448 h 5.11535 5.11536 l 0.77162,0.86407 0.77162,0.86407 v 4.89062 4.89061 h -1.5875 c -1.24659,0 -1.5875,-0.0867 -1.5875,-0.40367 0,-0.36183 -0.0809,-0.36183 -0.78061,0 -0.57381,0.29673 -1.63059,0.40367 -3.9891,0.40367 -3.19345,0 -3.21212,-0.004 -3.98189,-0.77339 z m 13.5141,-0.41723 v -1.19063 h 4.51313 4.51313 l -0.0814,-1.12448 -0.0814,-1.12448 -3.75011,-0.13229 c -3.51292,-0.12392 -3.79322,-0.17286 -4.43177,-0.77372 -0.6045,-0.56883 -0.68167,-0.84783 -0.68167,-2.46479 0,-3.40042 0.44434,-3.64065 6.73374,-3.64065 h 4.64335 v 1.1839 1.18391 l -4.16719,0.0729 -4.16719,0.0729 -0.0821,0.99219 -0.0821,0.99218 h 3.54872 c 3.25804,0 3.62236,0.0495 4.44774,0.60479 0.88157,0.59305 0.90054,0.6456 0.97739,2.70654 0.086,2.30656 -0.17149,3.07992 -1.17822,3.53861 -0.40019,0.18234 -2.54736,0.29381 -5.65947,0.29381 h -5.01464 z m 2.64584,-7.3549 0.13229,-2.85698 -0.66146,0.15496 c -1.23914,0.2903 -1.85208,1.30882 -1.85208,3.07761 0,2.09373 0.31555,2.66869 1.40664,2.56299 l 0.84232,-0.0816 z m -48.87673,2.72469 c 0.056,-0.21828 0.49728,-0.66477 0.98052,-0.99219 0.82241,-0.55722 1.12583,-0.59194 4.7421,-0.54271 l 3.86348,0.0526 -3.96875,0.14584 c -4.00343,0.14711 -4.83849,0.34304 -5.42798,1.27356 -0.19983,0.31543 -0.25928,0.33518 -0.18937,0.0629 z m 13.46879,-4.56406 -0.0462,-1.25677 h 1.70717 1.70716 l 0.0788,-1.65365 0.0788,-1.65365 1.52135,-0.0793 1.52135,-0.0794 v 1.7227 1.72269 l 2.31511,0.0765 2.3151,0.0764 0.0814,1.12448 c 0.0481,0.66531 -0.0329,1.12448 -0.19844,1.12448 -0.15389,0 -0.27979,-0.47625 -0.27979,-1.05834 v -1.05833 h -2.24896 -2.24896 v -1.71979 -1.71979 h -1.32292 -1.32291 v 1.71979 1.71979 h -1.70458 -1.70458 l -0.10128,1.12448 -0.10128,1.12448 z m 13.22916,-4.23334 -0.0462,-1.25677 h 1.85208 1.85208 l -0.0462,1.25677 -0.0462,1.25677 -0.10129,-1.12448 -0.10128,-1.12447 h -1.55707 -1.55707 l -0.10128,1.12447 -0.10128,1.12448 z m -41.05664,-1.78593 v -1.32292 h 3.43958 3.43959 v -1.45521 -1.45521 h -3.32765 c -3.325142,0 -3.328222,-5.3e-4 -4.101038,-0.7734 l -0.773399,-0.77339 v -4.79488 c 0,-4.73808 0.0077,-4.80257 0.649433,-5.44431 0.606343,-0.60635 0.832179,-0.64944 3.403904,-0.64944 2.38599,0 2.84773,0.0734 3.45161,0.54837 l 0.69714,0.54837 v -0.54837 c 0,-0.47353 0.16249,-0.54837 1.19062,-0.54837 h 1.19063 l -0.002,7.60678 c -7.9e-4,4.45438 -0.11562,8.01777 -0.2769,8.59853 -0.42785,1.541 -1.16915,1.78636 -5.39692,1.78636 h -3.58501 z m 6.87917,-10.45105 v -3.57187 H 102.062 99.151583 v 3.57187 3.57188 h 2.910417 2.91042 z m -14.287503,-1.85208 v -8.59896 h 1.190625 1.190625 v 8.59896 8.59896 h -1.190625 -1.190625 z m 20.372913,6.52455 c 0,-1.14093 -0.0782,-4.05796 -0.17384,-6.48229 l -0.17384,-4.40789 h 1.23218 c 1.07017,0 1.23217,0.0721 1.23217,0.54837 v 0.54837 l 0.69714,-0.54837 c 0.60388,-0.47501 1.06562,-0.54837 3.45161,-0.54837 2.57172,0 2.79756,0.0431 3.4039,0.64944 l 0.64943,0.64943 v 5.83286 5.83286 h -1.05833 -1.05833 l -0.002,-2.97656 c -7.9e-4,-1.63711 -0.0781,-3.95883 -0.17151,-5.15938 l -0.16992,-2.18281 h -2.8712 -2.8712 v 5.15937 5.15938 h -1.05833 -1.05834 z m 15.42584,1.80671 c -1.06813,-0.43015 -1.46246,-1.67199 -1.36178,-4.28853 0.0852,-2.21494 0.13946,-2.41065 0.83351,-3.00748 0.69507,-0.59771 0.94366,-0.63838 3.9026,-0.63838 h 3.16025 v -1.05833 -1.05833 h -3.57187 -3.57188 v -1.32292 -1.32292 h 4.11307 c 4.01418,0 4.12868,0.0156 4.7625,0.64944 l 0.64943,0.64943 v 5.83286 5.83286 h -1.19062 c -1.11742,0 -1.19191,-0.0447 -1.21152,-0.72761 -0.0115,-0.40018 -0.0818,-0.57627 -0.15619,-0.3913 -0.28851,0.71706 -1.64225,1.11896 -3.71238,1.10214 -1.13502,-0.009 -2.32532,-0.12215 -2.64512,-0.25093 z m 6.53458,-3.83334 v -1.45521 h -2.77812 -2.77813 v 1.45521 1.45521 h 2.77813 2.77812 z m 6.59423,3.32764 -0.7734,-0.7734 v -5.0088 c 0,-4.95 0.008,-5.01702 0.64883,-5.70889 0.64364,-0.6945 0.67919,-0.7001 4.4518,-0.7001 3.72734,0 3.81548,0.0133 4.4324,0.67001 0.49431,0.52617 0.65283,1.03738 0.73841,2.38125 l 0.10896,1.71124 h -1.22145 -1.22145 v -1.05833 -1.05833 h -2.77812 -2.77813 v 3.83646 3.83646 h 2.77813 2.77812 v -1.05834 -1.05833 h 1.22145 1.22145 l -0.11178,1.75544 c -0.0964,1.51453 -0.21162,1.84132 -0.83933,2.38125 -0.68742,0.5913 -0.92484,0.62581 -4.30502,0.62581 h -3.57747 z m 12.98494,-5.70889 v -6.4823 h 1.19062 1.19063 v 6.4823 6.48229 h -1.19063 -1.19062 z m 6.85881,5.70889 -0.7734,-0.7734 v -5.05946 c 0,-5.019 0.005,-5.06466 0.64944,-5.70889 0.62762,-0.62763 0.77372,-0.64944 4.35087,-0.64944 3.53021,0 3.73578,0.0295 4.4438,0.63797 l 0.74235,0.63797 0.0828,4.62226 c 0.0925,5.16505 -0.14755,6.32344 -1.41018,6.80349 -0.38032,0.14459 -2.18117,0.2629 -4.0019,0.2629 -3.30611,0 -3.31143,-0.001 -4.08382,-0.7734 z m 7.1641,-5.70889 v -3.83646 h -2.77812 -2.77813 v 3.83646 3.83646 h 2.77813 2.77812 z m -94.838086,-4.35072 -2.630794,-0.1472 3.677457,-3.36306 c 2.022599,-1.84969 3.726101,-3.31442 3.785552,-3.25497 0.05945,0.0595 0.02167,1.66213 -0.08398,3.5615 l -0.192082,3.4534 -0.962676,-0.0512 c -0.529471,-0.0282 -2.146533,-0.11747 -3.593473,-0.19843 z m 80.815176,-5.57116 v -1.32292 h 1.19062 1.19063 v 1.32292 1.32292 h -1.19063 -1.19062 z"
         id="path5133"
         inkscape:connector-curvature="0" />
      <path
         style="fill:#53535c;stroke-width:0.26458335"
         d="m 88.894759,204.72595 -0.06193,-7.75115 1.748137,0.0782 1.748136,0.0782 3.479742,5.33812 c 1.913858,2.93597 3.552251,5.41063 3.640873,5.49925 0.08862,0.0886 1.797243,-2.34329 3.796933,-5.40426 l 3.6358,-5.5654 h 1.69082 1.69081 l -0.0619,7.73906 -0.0619,7.73907 -0.0744,-7.60678 -0.0744,-7.60677 -1.5173,0.003 -1.5173,0.003 -3.68504,5.68554 c -2.02677,3.12704 -3.702036,5.68554 -3.722809,5.68554 -0.02077,0 -1.696257,-2.5594 -3.723296,-5.68754 l -3.685524,-5.68753 -1.517295,-0.001 -1.517299,-0.001 -0.07442,7.60677 -0.07442,7.60677 -0.06193,-7.75115 z m 2.848491,2.1949 c 0,-3.03168 0.06909,-5.44306 0.153527,-5.35862 0.17956,0.17956 0.149117,10.56814 -0.0315,10.74875 -0.06711,0.0671 -0.122026,-2.35844 -0.122027,-5.39013 z m 11.6514,0.2285 c 1.92283,-2.89057 3.60023,-5.36869 3.72754,-5.50693 0.13273,-0.14413 0.20695,2.11331 0.17399,5.29166 l -0.0575,5.54303 -0.14096,-5.13473 -0.14095,-5.13472 -3.2902,4.95099 c -1.8096,2.72304 -3.3977,5.01743 -3.5291,5.09863 -0.1314,0.0812 1.33432,-2.21736 3.25716,-5.10793 z m 17.35734,4.687 c 0.45684,-0.27856 0.89392,-0.66507 0.9713,-0.8589 0.10478,-0.26249 0.14601,-0.24883 0.16157,0.0536 0.0193,0.37515 -1.22629,1.31509 -1.73972,1.31282 -0.12307,-5.3e-4 0.15001,-0.2289 0.60685,-0.50747 z m 3.85954,-4.30543 c -0.0582,-4.80384 -0.0783,-4.96755 -0.69789,-5.68854 l -0.63795,-0.74236 -5.11674,-0.1459 -5.11674,-0.14591 4.70485,-0.0525 c 5.03612,-0.0562 6.20937,0.15832 6.78909,1.24154 0.19147,0.35777 0.26486,2.25239 0.21353,5.51251 l -0.0782,4.96738 z m 12.37547,3.75556 v -1.05833 h -2.38125 -2.38125 l 0.0578,-3.63802 0.0578,-3.63803 0.0822,3.50573 0.0822,3.50573 h 2.37357 2.37357 v 1.19063 c 0,0.65484 -0.0595,1.19062 -0.13229,1.19062 -0.0728,0 -0.13229,-0.47625 -0.13229,-1.05833 z m 2.5058,-4.7625 0.008,-5.68854 h 1.45521 1.45521 l 0.008,5.68854 0.008,5.68854 -0.079,-5.62239 -0.079,-5.6224 h -1.3126 -1.3126 l -0.079,5.6224 -0.079,5.62239 0.008,-5.68854 z m 5.67593,5.04744 c -0.71934,-0.71934 -0.7734,-0.91417 -0.7734,-2.78744 0,-3.4532 0.6125,-3.8475 5.97664,-3.8475 h 3.51642 l 0.10379,-0.99219 0.10378,-0.99219 0.0445,1.10586 0.0445,1.10585 -4.12458,0.0848 -4.12458,0.0848 -0.63792,0.74236 c -0.54291,0.63179 -0.63792,1.01861 -0.63792,2.59709 0,2.09891 0.23317,2.70048 1.26342,3.25958 0.39652,0.21519 0.56296,0.39601 0.36987,0.40184 -0.19309,0.006 -0.69911,-0.33743 -1.12448,-0.7628 z m 8.7823,0.42705 c -0.0172,-0.26922 -0.155,-0.40181 -0.31481,-0.30304 -0.15627,0.0966 -0.1265,-0.079 0.0661,-0.39017 0.27381,-0.44228 0.36892,-0.47719 0.4358,-0.15997 0.047,0.22317 0.0311,0.61413 -0.0354,0.86879 -0.11183,0.42791 -0.12333,0.42673 -0.15169,-0.0156 z m 2.87972,-4.5337 c 0,-4.77589 -0.0136,-4.89587 -0.638,-5.62239 l -0.638,-0.74236 -5.03455,-0.082 -5.03455,-0.082 -0.10809,1.07617 -0.10809,1.07618 0.026,-1.12645 0.0259,-1.12644 h 5.11535 5.11536 l 0.77162,0.86407 0.77163,0.86407 v 4.89062 c -1e-5,2.68984 -0.0595,4.89061 -0.1323,4.89061 -0.0728,0 -0.13229,-2.19601 -0.13229,-4.88004 z m 1.89831,3.75556 -0.0462,-1.25677 h 4.52456 4.52456 l -0.0947,-1.19062 c -0.0521,-0.65485 -0.005,-1.19063 0.10565,-1.19063 0.11019,0 0.20034,0.59532 0.20034,1.32292 v 1.32292 h -4.4827 -4.48271 l -0.10128,1.12448 -0.10128,1.12448 z m -28.75499,0.32911 c -0.26419,-0.29193 -0.43147,-0.57793 -0.37173,-0.63554 0.0597,-0.0576 0.32254,0.18124 0.58399,0.53078 0.57742,0.77199 0.44895,0.83539 -0.21226,0.10476 z m -0.55484,-4.76088 c 0,-2.11005 0.0411,-2.97325 0.0913,-1.91823 0.0502,1.05503 0.0502,2.78144 0,3.83646 -0.0502,1.05503 -0.0913,0.19183 -0.0913,-1.91823 z m -14.3437,1.91823 0.0489,-1.52135 0.0969,1.38126 0.0969,1.38126 3.35988,0.0826 3.35988,0.0826 -3.50573,0.0575 -3.50573,0.0575 z m 32.27916,0 0.0489,-1.52135 0.0972,1.38906 0.0972,1.38906 h 3.14734 3.14735 l 0.0972,-1.38906 0.0972,-1.38906 0.0489,1.52135 0.0489,1.52136 h -3.43959 -3.43958 z m 11.90343,-2.00143 c -0.47338,-0.50389 -0.57529,-0.92877 -0.57529,-2.39864 0,-3.38403 0.45512,-3.62172 6.79989,-3.55133 l 4.70949,0.0522 -4.98446,0.14619 -4.98445,0.14619 -0.63794,0.74236 c -0.87097,1.01352 -0.92171,3.72032 -0.0896,4.77821 0.6771,0.8608 0.53799,0.91042 -0.23767,0.0848 z m 10.69754,-0.40573 -0.50114,-0.70169 0.61873,0.58796 c 0.3403,0.32338 0.56581,0.63914 0.50113,0.70169 -0.0647,0.0626 -0.3431,-0.20203 -0.61872,-0.58796 z m -57.57491,0.30945 c 0,-0.14722 0.26789,-0.49448 0.59531,-0.7717 l 0.59532,-0.50403 -0.52635,0.66146 c -0.28949,0.36381 -0.55738,0.71107 -0.59531,0.77171 -0.0379,0.0606 -0.069,-0.0102 -0.069,-0.15744 z m 52.78438,-1.14343 -3.70417,-0.15514 3.57187,-0.0507 c 1.96454,-0.0279 3.75047,0.0647 3.96875,0.20581 0.21829,0.14106 0.27782,0.23367 0.1323,0.20581 -0.14552,-0.0279 -1.93146,-0.12049 -3.96875,-0.20581 z m -51.10682,-0.32668 c 0.16875,-0.10692 2.03322,-0.1762 4.14327,-0.15396 4.24789,0.0448 3.70796,0.16579 -1.23285,0.27635 -1.76948,0.0396 -3.07916,-0.0155 -2.91042,-0.12239 z m 11.86242,-3.17905 -0.0462,-1.25677 h 1.70717 1.70716 l 0.0788,-1.65365 0.0788,-1.65365 1.52135,-0.0793 1.52135,-0.0794 v 1.7227 1.72269 l 2.31511,0.0765 2.3151,0.0764 0.0226,1.05833 0.0226,1.05833 -0.10399,-0.99218 -0.10398,-0.99219 h -2.36604 -2.36603 v -1.71979 -1.71979 h -1.32292 -1.32292 v 1.71979 1.71979 h -1.70458 -1.70457 l -0.10128,1.12448 -0.10129,1.12448 -0.0462,-1.25677 z m 13.22916,-4.23334 -0.0462,-1.25677 h 1.85208 1.85208 l -0.0462,1.25677 -0.0462,1.25677 -0.10129,-1.12448 -0.10128,-1.12447 h -1.55707 -1.55707 l -0.10128,1.12447 -0.10128,1.12448 z m -41.05664,-1.78593 v -1.32292 h 3.43958 3.43959 v -1.45521 -1.45521 h -3.32765 c -3.325142,0 -3.328222,-5.3e-4 -4.101038,-0.7734 l -0.773399,-0.77339 v -4.79488 c 0,-4.73808 0.0077,-4.80257 0.649433,-5.44431 0.606343,-0.60635 0.832179,-0.64944 3.403904,-0.64944 2.38599,0 2.84773,0.0734 3.45161,0.54837 l 0.69714,0.54837 v -0.54837 c 0,-0.47353 0.16249,-0.54837 1.19062,-0.54837 h 1.19063 l -0.002,7.60678 c -7.9e-4,4.45438 -0.11562,8.01777 -0.2769,8.59853 -0.42785,1.541 -1.16915,1.78636 -5.39692,1.78636 h -3.58501 z m 6.87917,-10.45105 v -3.57187 H 102.062 99.151583 v 3.57187 3.57188 h 2.910417 2.91042 z m -14.287503,-1.85208 v -8.59896 h 1.190625 1.190625 v 8.59896 8.59896 h -1.190625 -1.190625 z m 20.372913,6.52455 c 0,-1.14093 -0.0782,-4.05796 -0.17384,-6.48229 l -0.17384,-4.40789 h 1.23218 c 1.07017,0 1.23217,0.0721 1.23217,0.54837 v 0.54837 l 0.69714,-0.54837 c 0.60388,-0.47501 1.06562,-0.54837 3.45161,-0.54837 2.57172,0 2.79756,0.0431 3.4039,0.64944 l 0.64943,0.64943 v 5.83286 5.83286 h -1.05833 -1.05833 l -0.002,-2.97656 c -7.9e-4,-1.63711 -0.0781,-3.95883 -0.17151,-5.15938 l -0.16992,-2.18281 h -2.8712 -2.8712 v 5.15937 5.15938 h -1.05833 -1.05834 z m 15.42584,1.80671 c -1.06813,-0.43015 -1.46246,-1.67199 -1.36178,-4.28853 0.0852,-2.21494 0.13946,-2.41065 0.83351,-3.00748 0.69507,-0.59771 0.94366,-0.63838 3.9026,-0.63838 h 3.16025 v -1.05833 -1.05833 h -3.57187 -3.57188 v -1.32292 -1.32292 h 4.11307 c 4.01418,0 4.12868,0.0156 4.7625,0.64944 l 0.64943,0.64943 v 5.83286 5.83286 h -1.19062 c -1.11742,0 -1.19191,-0.0447 -1.21152,-0.72761 -0.0115,-0.40018 -0.0818,-0.57627 -0.15619,-0.3913 -0.28851,0.71706 -1.64225,1.11896 -3.71238,1.10214 -1.13502,-0.009 -2.32532,-0.12215 -2.64512,-0.25093 z m 6.53458,-3.83334 v -1.45521 h -2.77812 -2.77813 v 1.45521 1.45521 h 2.77813 2.77812 z m 6.59423,3.32764 -0.7734,-0.7734 v -5.0088 c 0,-4.95 0.008,-5.01702 0.64883,-5.70889 0.64364,-0.6945 0.67919,-0.7001 4.4518,-0.7001 3.72734,0 3.81548,0.0133 4.4324,0.67001 0.49431,0.52617 0.65283,1.03738 0.73841,2.38125 l 0.10896,1.71124 h -1.22145 -1.22145 v -1.05833 -1.05833 h -2.77812 -2.77813 v 3.83646 3.83646 h 2.77813 2.77812 v -1.05834 -1.05833 h 1.22145 1.22145 l -0.11178,1.75544 c -0.0964,1.51453 -0.21162,1.84132 -0.83933,2.38125 -0.68742,0.5913 -0.92484,0.62581 -4.30502,0.62581 h -3.57747 z m 12.98494,-5.70889 v -6.4823 h 1.19062 1.19063 v 6.4823 6.48229 h -1.19063 -1.19062 z m 6.85881,5.70889 -0.7734,-0.7734 v -5.05946 c 0,-5.019 0.005,-5.06466 0.64944,-5.70889 0.62762,-0.62763 0.77372,-0.64944 4.35087,-0.64944 3.53021,0 3.73578,0.0295 4.4438,0.63797 l 0.74235,0.63797 0.0828,4.62226 c 0.0925,5.16505 -0.14755,6.32344 -1.41018,6.80349 -0.38032,0.14459 -2.18117,0.2629 -4.0019,0.2629 -3.30611,0 -3.31143,-0.001 -4.08382,-0.7734 z m 7.1641,-5.70889 v -3.83646 h -2.77812 -2.77813 v 3.83646 3.83646 h 2.77813 2.77812 z m -14.02291,-9.92188 v -1.32292 h 1.19062 1.19063 v 1.32292 1.32292 h -1.19063 -1.19062 z"
         id="path5131"
         inkscape:connector-curvature="0" />
      <path
         style="fill:#393945;stroke-width:0.26458335"
         d="m 91.844257,209.3021 c -5.29e-4,-1.74625 0.04187,-2.49505 0.09421,-1.66401 0.05234,0.83104 0.05276,2.25979 0.0011,3.175 -0.05181,0.91521 -0.09463,0.23526 -0.09516,-1.51099 z m 18.249163,0.79375 c 7.9e-4,-1.30968 0.0462,-1.81211 0.10089,-1.11649 0.0547,0.69561 0.054,1.76718 -0.002,2.38125 -0.0555,0.61407 -0.10023,0.0449 -0.0994,-1.26476 z m 14.56845,-2.64583 c -2.5e-4,-2.76489 0.0388,-3.93194 0.0867,-2.59343 0.0479,1.33851 0.0481,3.6007 5.3e-4,5.02708 -0.0477,1.42639 -0.0869,0.33125 -0.0871,-2.43365 z m 14.81913,-0.79375 c -2e-4,-3.20146 0.0378,-4.54751 0.0845,-2.99122 0.0467,1.55628 0.0469,4.17565 2.6e-4,5.82083 -0.0465,1.64517 -0.0847,0.37185 -0.0849,-2.82961 z m 14.50072,4.89479 c 0,-0.50932 0.0545,-0.71768 0.121,-0.46302 0.0666,0.25466 0.0666,0.67138 0,0.92604 -0.0666,0.25467 -0.121,0.0463 -0.121,-0.46302 z m 4.74734,-0.33073 -0.0462,-1.25677 h 4.48342 4.48342 l 0.0991,-1.25677 0.0991,-1.25677 0.0477,1.38906 0.0477,1.38907 h -4.4827 -4.48271 l -0.10128,1.12448 -0.10128,1.12448 z m -37.32591,0.14433 c 0.19265,-0.32081 0.40723,-0.52633 0.47684,-0.45672 0.0696,0.0696 -0.088,0.33208 -0.35029,0.58328 -0.45559,0.43637 -0.46123,0.43073 -0.12655,-0.12656 z m 23.079,-2.59172 c -10e-4,-1.01865 0.0457,-1.46779 0.10414,-0.99809 0.0585,0.4697 0.0594,1.30313 0.002,1.85208 -0.0573,0.54895 -0.1051,0.16465 -0.10627,-0.85399 z m -29.40662,-0.0661 0.0489,-1.52135 0.0969,1.38126 0.0969,1.38126 3.35988,0.0826 3.35988,0.0826 -3.50573,0.0575 -3.50573,0.0575 z m 17.20675,-2.11666 0.0578,-3.63803 0.0821,3.49554 0.0821,3.49554 2.3075,0.0881 2.30749,0.0881 -2.44739,0.0544 -2.4474,0.0544 z m 18.25106,3.44042 3.35988,-0.0826 0.0969,-1.38126 0.0969,-1.38126 0.0489,1.52135 0.0489,1.52136 -3.50573,-0.0575 -3.50573,-0.0575 z M 99.277231,208.35 c -0.908941,-1.53406 -0.969578,-1.68663 -0.36945,-0.92958 l 0.605758,0.76414 0.636271,-0.76414 c 0.64121,-0.77008 0.42148,-0.13761 -0.276994,0.79729 -0.308067,0.41234 -0.415512,0.43621 -0.595585,0.13229 z m 59.953969,-1.72941 c -0.44253,-0.56259 -0.54011,-1.03495 -0.50559,-2.4474 l 0.0428,-1.75025 0.15565,1.89146 c 0.10913,1.32605 0.30633,2.05765 0.65969,2.4474 0.27721,0.30576 0.43468,0.55593 0.34993,0.55593 -0.0848,0 -0.40086,-0.31371 -0.70247,-0.69714 z m -14.57128,-0.0115 c 0,-0.14722 0.26789,-0.49448 0.59531,-0.7717 l 0.59531,-0.50403 -0.52634,0.66146 c -0.28949,0.36381 -0.55739,0.71107 -0.59532,0.77171 -0.0379,0.0606 -0.069,-0.0102 -0.069,-0.15744 z m 25.13541,-0.48198 c -0.18115,-0.21828 -0.26984,-0.39687 -0.19708,-0.39687 0.0728,0 0.28051,0.17859 0.46167,0.39687 0.18116,0.21829 0.26984,0.39688 0.19708,0.39688 -0.0728,0 -0.28051,-0.17859 -0.46167,-0.39688 z m -6.69173,-0.85707 c 0.90346,-0.0515 2.45127,-0.0519 3.43958,-7.9e-4 0.98832,0.0511 0.24913,0.0932 -1.64264,0.0936 -1.89177,5.3e-4 -2.70039,-0.0413 -1.79694,-0.0928 z m -12.70452,-0.26661 3.49021,-0.0821 0.10334,-0.98462 0.10333,-0.98462 0.0445,1.12448 0.0445,1.12448 -3.63802,-0.0578 -3.63802,-0.0578 z m 8.68659,-3.02978 c 0.13703,-0.35708 1.17356,-1.11642 1.30785,-0.9581 0.0394,0.0465 -0.26945,0.36111 -0.68637,0.69921 -0.41691,0.3381 -0.69658,0.4546 -0.62148,0.25889 z M 156.037,201.6292 c -0.18116,-0.21828 -0.26984,-0.39688 -0.19708,-0.39688 0.0728,0 0.28051,0.1786 0.46166,0.39688 0.18116,0.21828 0.26985,0.39687 0.19709,0.39687 -0.0728,0 -0.28051,-0.17859 -0.46167,-0.39687 z m -27.7151,-0.84385 c 0.25466,-0.0665 0.67138,-0.0665 0.92604,0 0.25466,0.0666 0.0463,0.12101 -0.46302,0.12101 -0.50933,0 -0.71769,-0.0545 -0.46302,-0.12101 z m 3.9026,-1.52358 v -1.70596 l -1.32441,-0.10297 -1.32442,-0.10296 1.39056,0.023 1.39056,0.023 0.0785,1.64352 0.0785,1.64353 2.30274,0.088 2.30274,0.088 -2.44739,0.0544 -2.4474,0.0544 z m 15.41198,1.50897 c 1.27331,-0.0485 3.3569,-0.0485 4.63021,0 1.27331,0.0485 0.23151,0.0882 -2.31511,0.0882 -2.54661,0 -3.58841,-0.0397 -2.3151,-0.0882 z m 15.74271,1.5e-4 c 1.20055,-0.049 3.16508,-0.049 4.36562,0 1.20055,0.049 0.21828,0.0891 -2.18281,0.0891 -2.40109,0 -3.38336,-0.0401 -2.18281,-0.0891 z m -24.16689,-3.24273 0.0237,-0.92605 1.5875,-0.0189 1.5875,-0.0189 -1.50611,0.0973 c -1.47196,0.0951 -1.50849,0.11648 -1.61116,0.94493 -0.10173,0.82089 -0.1043,0.81841 -0.0814,-0.0784 z m -36.68728,-2.83724 c 0.47294,-0.0587 1.24685,-0.0587 1.71979,0 0.47295,0.0587 0.086,0.10672 -0.85989,0.10672 -0.94589,0 -1.33284,-0.048 -0.8599,-0.10672 z m 18.58698,-6.29089 v -3.57188 h -0.92604 -0.92604 v -1.5875 -1.5875 h -3.04271 -3.04271 v 1.7198 1.71979 h -1.05833 -1.05834 v -2.91042 -2.91042 h 1.05834 c 0.96219,0 1.05833,0.0622 1.05833,0.68498 v 0.68498 l 0.81405,-0.68498 c 0.75076,-0.63172 1.00948,-0.68498 3.32765,-0.68498 2.4254,0 2.54072,0.0271 3.28699,0.7734 l 0.77339,0.7734 v 5.5766 c 0,3.06713 -0.0595,5.57661 -0.13229,5.57661 -0.0728,0 -0.13229,-1.60735 -0.13229,-3.57188 z m 14.08286,0.0661 -0.0599,-3.63803 -2.84427,-0.0653 c -1.56435,-0.0359 -3.60469,-0.0554 -4.53408,-0.0433 -1.47208,0.0192 -1.62749,-0.0235 -1.2062,-0.33157 0.33894,-0.24784 1.41824,-0.35363 3.60803,-0.35363 h 3.12443 v -1.19062 -1.19063 h -3.57187 -3.57188 v -1.19062 -1.19063 h 3.80078 c 3.42701,0 3.86837,0.0532 4.48808,0.54064 0.92275,0.72583 1.00831,1.40839 0.91068,7.26457 -0.0744,4.46084 -0.0906,4.6173 -0.14376,1.38907 z m 7.29878,3.32499 c 0.191,-0.0764 0.4192,-0.067 0.50712,0.0209 0.0879,0.0879 -0.0684,0.15045 -0.34727,0.13897 -0.30822,-0.0127 -0.37091,-0.0754 -0.15985,-0.15985 z m 2.50064,-0.009 c 0.40219,-0.0608 0.9975,-0.0592 1.32292,0.004 0.32542,0.0628 -0.004,0.11256 -0.73124,0.11057 -0.7276,-0.002 -0.99386,-0.0534 -0.59168,-0.11419 z m 7.60314,-6.16014 v -6.35 h 1.05833 1.05833 v 6.35 6.35001 h -1.05833 -1.05833 z m 1.85208,3.04271 v -3.04271 h -0.79375 -0.79375 v 3.04271 3.04271 h 0.79375 0.79375 z m 5.89225,3.12126 c -0.32452,-0.0627 -0.83054,-0.41971 -1.12448,-0.7934 -0.49109,-0.62432 -0.53444,-1.06445 -0.53444,-5.4266 v -4.74717 l 0.7734,-0.7734 c 0.77251,-0.77251 0.77721,-0.7734 4.08859,-0.7734 1.91435,0 3.5944,0.12722 3.97594,0.30106 1.00003,0.45564 1.21624,1.51597 1.21624,5.96463 0,4.72352 -0.24455,5.66193 -1.59852,6.13393 -0.81226,0.28315 -5.51334,0.36225 -6.79673,0.11435 z m 6.27858,-6.16397 v -3.96875 h -2.91041 -2.91042 v 3.96875 3.96876 h 2.91042 2.91041 z m -27.12126,5.55463 c -0.26419,-0.29193 -0.43147,-0.57793 -0.37173,-0.63554 0.0597,-0.0576 0.32254,0.18124 0.58399,0.53079 0.57742,0.77198 0.44895,0.83538 -0.21226,0.10475 z m -6.64637,-0.85827 c 0.13571,-0.42188 -0.1089,-0.46302 -2.75317,-0.46302 h -2.90211 l 0.051,-1.78594 0.051,-1.78594 0.0939,1.65365 0.0939,1.65365 h 2.89779 c 1.59379,0 2.89597,0.0893 2.89374,0.19843 -0.002,0.10914 -0.13252,0.37703 -0.28954,0.59532 -0.24098,0.33499 -0.26227,0.32468 -0.13654,-0.0661 z m 6.10108,-5.05057 0.0176,-4.71983 0.74235,-0.63798 c 0.7047,-0.60561 0.91944,-0.63755 4.23334,-0.62956 2.51839,0.006 3.62274,0.10836 3.96394,0.36717 0.56468,0.42832 0.98224,1.75823 0.98224,3.1284 0,0.9832 -0.0114,0.99393 -1.05833,0.99393 h -1.05834 v -1.05833 -1.05834 h -2.91041 -2.91042 v 1.5875 1.5875 h -0.91679 -0.91678 l -0.093,2.57969 c -0.0511,1.41883 -0.0851,0.45576 -0.0754,-2.14015 z m 4.84624,4.39003 2.97656,-0.0844 v -1.04966 -1.04967 l 1.12448,0.0445 1.12448,0.0445 -0.99218,0.10379 c -0.96107,0.10053 -0.99219,0.13648 -0.99219,1.14615 v 1.04236 l -3.10886,-0.0566 -3.10885,-0.0565 z m -41.275,-0.52305 c 0.47294,-0.0587 1.24685,-0.0587 1.71979,0 0.47295,0.0587 0.086,0.10672 -0.85989,0.10672 -0.94589,0 -1.33284,-0.048 -0.8599,-0.10672 z m -11.840103,-8.14297 v -5.95313 h 1.190625 1.190625 v 5.78776 5.78776 l -0.826823,0.16537 c -1.651148,0.33023 -1.554427,0.69036 -1.554427,-5.78776 z m 6.085416,2.56632 c 0,-2.67489 0.0182,-2.75751 0.773399,-3.51272 0.746262,-0.74626 0.861586,-0.7734 3.286988,-0.7734 2.31817,0 2.57689,0.0533 3.32765,0.68498 l 0.81405,0.68498 v -0.68498 c 0,-0.62275 0.0961,-0.68498 1.05833,-0.68498 h 1.05833 v 3.01492 3.01492 l -1.05833,0.10093 -1.05833,0.10093 v -1.92522 -1.92523 H 101.92971 98.887 v 2.22117 2.22117 l -1.058333,0.10093 -1.058334,0.10093 z m 55.827087,-7.85799 v -1.19063 h 1.05833 1.05833 v 1.19063 1.19062 h -1.05833 -1.05833 z"
         id="path5129"
         inkscape:connector-curvature="0" />
    </g>
  </g>
</svg>
